<mxfile host="app.diagrams.net" modified="2023-03-25T21:43:07.876Z" agent="Mozilla/5.0 (Windows NT 10.0; Win64; x64) AppleWebKit/537.36 (KHTML, like Gecko) Chrome/111.0.0.0 Safari/537.36" etag="M81CYB0Srr9zevlOdOXq" version="21.1.1" type="device">
  <diagram name="ページ1" id="QkPX6XRcepi8HQ4dwopv">
    <mxGraphModel dx="989" dy="504" grid="1" gridSize="10" guides="1" tooltips="1" connect="1" arrows="1" fold="1" page="1" pageScale="1" pageWidth="827" pageHeight="1169" math="0" shadow="0">
      <root>
        <mxCell id="0" />
        <mxCell id="1" parent="0" />
        <mxCell id="J50vbOt_J7W4uscUM8S5-1" value="" style="endArrow=none;html=1;rounded=0;strokeWidth=2;fillColor=#dae8fc;strokeColor=#6c8ebf;" edge="1" parent="1">
          <mxGeometry width="50" height="50" relative="1" as="geometry">
            <mxPoint x="455" y="329.83" as="sourcePoint" />
            <mxPoint x="490" y="330" as="targetPoint" />
          </mxGeometry>
        </mxCell>
        <mxCell id="4oapB1MWvMiPvNOWLdjF-1" value="標準バスパワーライン" style="rounded=0;whiteSpace=wrap;html=1;fillColor=#f5f5f5;fontColor=#333333;strokeColor=#666666;" parent="1" vertex="1">
          <mxGeometry x="352" y="280" width="136" height="20" as="geometry" />
        </mxCell>
        <mxCell id="4oapB1MWvMiPvNOWLdjF-12" style="edgeStyle=orthogonalEdgeStyle;rounded=0;orthogonalLoop=1;jettySize=auto;html=1;entryX=0.5;entryY=0;entryDx=0;entryDy=0;endArrow=none;endFill=0;strokeWidth=2;fillColor=#ffe6cc;strokeColor=#d79b00;" parent="1" source="4oapB1MWvMiPvNOWLdjF-2" target="4oapB1MWvMiPvNOWLdjF-11" edge="1">
          <mxGeometry relative="1" as="geometry" />
        </mxCell>
        <mxCell id="4oapB1MWvMiPvNOWLdjF-16" value="I2C" style="edgeLabel;html=1;align=center;verticalAlign=middle;resizable=0;points=[];" parent="4oapB1MWvMiPvNOWLdjF-12" vertex="1" connectable="0">
          <mxGeometry x="-0.0219" relative="1" as="geometry">
            <mxPoint x="10" y="1" as="offset" />
          </mxGeometry>
        </mxCell>
        <mxCell id="4oapB1MWvMiPvNOWLdjF-2" value="Arduino MKR WAN 1310" style="rounded=0;whiteSpace=wrap;html=1;fillColor=#f5f5f5;fontColor=#333333;strokeColor=#666666;" parent="1" vertex="1">
          <mxGeometry x="320" y="360" width="200" height="80" as="geometry" />
        </mxCell>
        <mxCell id="4oapB1MWvMiPvNOWLdjF-24" value="CAN" style="edgeStyle=orthogonalEdgeStyle;rounded=0;orthogonalLoop=1;jettySize=auto;html=1;endArrow=none;endFill=0;fillColor=#dae8fc;strokeColor=#6c8ebf;strokeWidth=2;" parent="1" source="4oapB1MWvMiPvNOWLdjF-5" edge="1">
          <mxGeometry x="0.6667" y="-20" relative="1" as="geometry">
            <mxPoint x="420" y="300" as="targetPoint" />
            <mxPoint as="offset" />
          </mxGeometry>
        </mxCell>
        <mxCell id="4oapB1MWvMiPvNOWLdjF-11" value="Arduino MKR GPS Shield" style="rounded=0;whiteSpace=wrap;html=1;fillColor=#f5f5f5;fontColor=#333333;strokeColor=#666666;" parent="1" vertex="1">
          <mxGeometry x="370" y="480" width="100" height="40" as="geometry" />
        </mxCell>
        <mxCell id="4oapB1MWvMiPvNOWLdjF-14" style="edgeStyle=orthogonalEdgeStyle;rounded=0;orthogonalLoop=1;jettySize=auto;html=1;entryX=1;entryY=0.5;entryDx=0;entryDy=0;endArrow=none;endFill=0;fillColor=#d5e8d4;strokeColor=#82b366;strokeWidth=2;" parent="1" source="4oapB1MWvMiPvNOWLdjF-13" target="4oapB1MWvMiPvNOWLdjF-2" edge="1">
          <mxGeometry relative="1" as="geometry">
            <Array as="points">
              <mxPoint x="600" y="400" />
            </Array>
          </mxGeometry>
        </mxCell>
        <mxCell id="4oapB1MWvMiPvNOWLdjF-15" value="SPI" style="edgeLabel;html=1;align=center;verticalAlign=middle;resizable=0;points=[];" parent="4oapB1MWvMiPvNOWLdjF-14" vertex="1" connectable="0">
          <mxGeometry x="-0.3441" y="2" relative="1" as="geometry">
            <mxPoint x="8" y="1" as="offset" />
          </mxGeometry>
        </mxCell>
        <mxCell id="4oapB1MWvMiPvNOWLdjF-13" value="汎用SD" style="rounded=0;whiteSpace=wrap;html=1;fillColor=#f5f5f5;fontColor=#333333;strokeColor=#666666;" parent="1" vertex="1">
          <mxGeometry x="566.25" y="280" width="60" height="20" as="geometry" />
        </mxCell>
        <mxCell id="4oapB1MWvMiPvNOWLdjF-9" value="" style="endArrow=none;html=1;rounded=0;strokeWidth=3;" parent="1" edge="1">
          <mxGeometry width="50" height="50" relative="1" as="geometry">
            <mxPoint x="160" y="300" as="sourcePoint" />
            <mxPoint x="680" y="300" as="targetPoint" />
          </mxGeometry>
        </mxCell>
        <mxCell id="R8z2_vb-2brvwjw0nN1z-2" value="" style="endArrow=none;html=1;rounded=0;strokeWidth=2;fillColor=#d5e8d4;strokeColor=#82b366;" parent="1" edge="1">
          <mxGeometry width="50" height="50" relative="1" as="geometry">
            <mxPoint x="560" y="329.8" as="sourcePoint" />
            <mxPoint x="600" y="329.8" as="targetPoint" />
          </mxGeometry>
        </mxCell>
        <mxCell id="4oapB1MWvMiPvNOWLdjF-5" value="MCP2562" style="rounded=0;whiteSpace=wrap;html=1;fillColor=#f5f5f5;fontColor=#333333;strokeColor=#666666;" parent="1" vertex="1">
          <mxGeometry x="385" y="320" width="70" height="20" as="geometry" />
        </mxCell>
        <mxCell id="R8z2_vb-2brvwjw0nN1z-1" value="MCP2515" style="rounded=0;whiteSpace=wrap;html=1;fillColor=#f5f5f5;fontColor=#333333;strokeColor=#666666;" parent="1" vertex="1">
          <mxGeometry x="490" y="320" width="70" height="20" as="geometry" />
        </mxCell>
        <mxCell id="4ZntzvaY8EAjNytyj5Dv-1" value="" style="endArrow=none;html=1;rounded=0;" parent="1" edge="1">
          <mxGeometry width="50" height="50" relative="1" as="geometry">
            <mxPoint x="240" y="340" as="sourcePoint" />
            <mxPoint x="320" y="400" as="targetPoint" />
            <Array as="points">
              <mxPoint x="240" y="400" />
            </Array>
          </mxGeometry>
        </mxCell>
        <mxCell id="4ZntzvaY8EAjNytyj5Dv-2" value="" style="endArrow=none;html=1;rounded=0;" parent="1" edge="1">
          <mxGeometry width="50" height="50" relative="1" as="geometry">
            <mxPoint x="220" y="340" as="sourcePoint" />
            <mxPoint x="260" y="340" as="targetPoint" />
            <Array as="points">
              <mxPoint x="240" y="360" />
            </Array>
          </mxGeometry>
        </mxCell>
        <mxCell id="4ZntzvaY8EAjNytyj5Dv-3" value="LoRa" style="edgeLabel;html=1;align=center;verticalAlign=middle;resizable=0;points=[];" parent="1" vertex="1" connectable="0">
          <mxGeometry x="280" y="410.0038095238094" as="geometry" />
        </mxCell>
      </root>
    </mxGraphModel>
  </diagram>
</mxfile>
